<svg xmlns="http://www.w3.org/2000/svg" width="20.361" height="16.931" viewBox="0 0 20.361 16.931">
  <g id="Group_18284" data-name="Group 18284" transform="translate(-927.25 -448.25)">
    <path id="Path_52403" data-name="Path 52403" d="M20.361,18.217a1.715,1.715,0,0,1-1.715,1.715H3.215A1.715,1.715,0,0,1,1.5,18.217V8.787A1.715,1.715,0,0,1,3.215,7.072H6.644L8.358,4.5H13.5l1.715,2.572h3.429a1.715,1.715,0,0,1,1.715,1.715Z" transform="translate(926.5 444.5)" fill="none" stroke="#634ddc" stroke-linecap="round" stroke-linejoin="round" stroke-width="1.5"/>
    <path id="Path_52404" data-name="Path 52404" d="M18.858,16.929A3.429,3.429,0,1,1,15.429,13.5a3.429,3.429,0,0,1,3.429,3.429Z" transform="translate(922 440.644)" fill="none" stroke="#634ddc" stroke-linecap="round" stroke-linejoin="round" stroke-width="1.5"/>
  </g>
</svg>
