<svg id="Group_12385" data-name="Group 12385" xmlns="http://www.w3.org/2000/svg" width="21.658" height="21.326" viewBox="0 0 21.658 21.326">
  <path id="Path_44064" data-name="Path 44064" d="M295.887,508.668q-2.507.409-5.036.753Q293.379,509.077,295.887,508.668Zm0,0" transform="translate(-274.229 -489.953)" fill="#57dcc2"/>
  <path id="Path_44065" data-name="Path 44065" d="M301.737,507.793c-.8.147-1.6.281-2.4.419C300.139,508.074,300.938,507.94,301.737,507.793Zm0,0" transform="translate(-280.955 -489.764)" fill="#57dcc2"/>
  <path id="Path_44066" data-name="Path 44066" d="M283.51,510.34q-2.935.331-5.9.582Q280.573,510.673,283.51,510.34Zm0,0" transform="translate(-261.87 -490.315)" fill="#57dcc2"/>
  <path id="Path_44067" data-name="Path 44067" d="M289.275,509.738c-.94.125-1.886.242-2.829.352C287.388,509.978,288.337,509.864,289.275,509.738Zm0,0" transform="translate(-268.772 -490.185)" fill="#57dcc2"/>
  <path id="Path_44068" data-name="Path 44068" d="M308.781,506.41c-.7.15-1.411.3-2.12.444C307.37,506.71,308.078,506.56,308.781,506.41Zm0,0" transform="translate(-287.846 -489.465)" fill="#57dcc2"/>
  <path id="Path_44069" data-name="Path 44069" d="M326.193,502.113c-.569.162-1.139.315-1.708.474C325.054,502.428,325.621,502.275,326.193,502.113Zm0,0" transform="translate(-304.747 -488.536)" fill="#57dcc2"/>
  <path id="Path_44070" data-name="Path 44070" d="M320.92,503.543c-.618.162-1.24.328-1.861.484Q319.991,503.793,320.92,503.543Zm0,0" transform="translate(-299.621 -488.845)" fill="#57dcc2"/>
  <path id="Path_44071" data-name="Path 44071" d="M314.044,505.254c-.655.153-1.317.3-1.978.444C312.727,505.549,313.389,505.407,314.044,505.254Zm0,0" transform="translate(-292.963 -489.216)" fill="#57dcc2"/>
  <path id="Path_44072" data-name="Path 44072" d="M276.652,511.09q-1.584.132-3.172.239Q275.07,511.223,276.652,511.09Zm0,0" transform="translate(-256.454 -490.478)" fill="#57dcc2"/>
  <path id="Path_44073" data-name="Path 44073" d="M21.327,10.663A10.663,10.663,0,1,0,10.664,21.327h.187v-8.3H8.56v-2.67h2.291V8.389a3.207,3.207,0,0,1,3.424-3.519,18.859,18.859,0,0,1,2.054.1v2.38h-1.4c-1.106,0-1.32.525-1.32,1.3v1.7h2.644L15.9,13.024H13.6v7.891a10.668,10.668,0,0,0,7.723-10.252Zm0,0" transform="translate(-0.001 -0.001)" fill="#57dcc2"/>
  <path id="Path_44074" data-name="Path 44074" d="M271.179,511.43q-3.132.2-6.288.312Q268.046,511.637,271.179,511.43Zm0,0" transform="translate(-249.735 -490.551)" fill="#57dcc2"/>
  <path id="Path_44075" data-name="Path 44075" d="M263.835,511.836q-1.663.055-3.331.083Q262.171,511.891,263.835,511.836Zm0,0" transform="translate(-244.02 -490.638)" fill="#57dcc2"/>
</svg>
