<svg id="Social_Network_Facebook" data-name="Social Network/Facebook" xmlns="http://www.w3.org/2000/svg" width="14" height="14" viewBox="0 0 14 14">
  <rect id="Area" width="14" height="14" fill="none"/>
  <path id="Facebook" d="M7,14H1.4A1.4,1.4,0,0,1,0,12.6V1.4A1.4,1.4,0,0,1,1.4,0H12.6A1.4,1.4,0,0,1,14,1.4V12.6A1.4,1.4,0,0,1,12.6,14H9.1V8.729h1.794l.288-1.976H9.1V5.908c0-.814.263-1.131.937-1.131H11.2V2.886l-.022,0A10.247,10.247,0,0,0,9.747,2.8a2.745,2.745,0,0,0-2.013.692A2.993,2.993,0,0,0,7,5.691V6.753H4.9V8.729H7V14Z" fill="#fff"/>
</svg>
