<svg id="Social_Network_Instagram" data-name="Social Network/Instagram" xmlns="http://www.w3.org/2000/svg" width="16" height="16" viewBox="0 0 16 16">
  <rect id="Area" width="15.878" height="15.878" fill="none"/>
  <path id="Instagram" d="M11.2,0A4.8,4.8,0,0,1,16,4.8v6.4A4.8,4.8,0,0,1,11.2,16H4.8A4.8,4.8,0,0,1,0,11.2V4.8A4.8,4.8,0,0,1,4.8,0ZM8,4a4,4,0,1,0,4,4A4,4,0,0,0,8,4Zm4.8-1.6a.86.86,0,0,0-.8.8.8.8,0,1,0,1.6,0A.86.86,0,0,0,12.8,2.4ZM8,5.6A2.4,2.4,0,1,0,10.4,8,2.4,2.4,0,0,0,8,5.6Z" fill="#fff" fill-rule="evenodd"/>
</svg>
