<svg id="Social_Network_Twitter" data-name="Social Network/Twitter" xmlns="http://www.w3.org/2000/svg" width="16" height="16" viewBox="0 0 16 16">
  <rect id="Area" width="16" height="16" fill="none"/>
  <path id="Twitter" d="M14.4,16H1.6A1.6,1.6,0,0,1,0,14.4V1.6A1.6,1.6,0,0,1,1.6,0H14.4A1.6,1.6,0,0,1,16,1.6V14.4A1.6,1.6,0,0,1,14.4,16Zm-12-4.6h0a6.689,6.689,0,0,0,3.522,1A6.38,6.38,0,0,0,12.46,6.079c0-.1,0-.193-.006-.287A4.58,4.58,0,0,0,13.6,4.642a4.727,4.727,0,0,1-1.32.35,2.237,2.237,0,0,0,1.01-1.229,4.707,4.707,0,0,1-1.459.539,2.345,2.345,0,0,0-1.677-.7,2.263,2.263,0,0,0-2.3,2.221,2.171,2.171,0,0,0,.059.506A6.624,6.624,0,0,1,3.18,4.006a2.171,2.171,0,0,0-.31,1.117A2.2,2.2,0,0,0,3.891,6.973a2.362,2.362,0,0,1-1.04-.278v.028A2.246,2.246,0,0,0,4.694,8.9a2.391,2.391,0,0,1-1.038.038A2.289,2.289,0,0,0,5.8,10.482a4.679,4.679,0,0,1-2.853.952A4.779,4.779,0,0,1,2.4,11.4Z" fill="#fff"/>
</svg>
