<svg xmlns="http://www.w3.org/2000/svg" width="23.815" height="23.81" viewBox="0 0 23.815 23.81">
  <path id="Icon_awesome-instagram" data-name="Icon awesome-instagram" d="M11.905,8.038a6.1,6.1,0,1,0,6.1,6.1A6.095,6.095,0,0,0,11.905,8.038Zm0,10.073a3.969,3.969,0,1,1,3.969-3.969,3.976,3.976,0,0,1-3.969,3.969ZM19.683,7.788a1.424,1.424,0,1,1-1.424-1.424A1.421,1.421,0,0,1,19.683,7.788Zm4.043,1.445A7.046,7.046,0,0,0,21.8,4.245a7.093,7.093,0,0,0-4.989-1.923c-1.966-.112-7.858-.112-9.824,0A7.083,7.083,0,0,0,2,4.239,7.069,7.069,0,0,0,.078,9.228c-.112,1.966-.112,7.858,0,9.824A7.046,7.046,0,0,0,2,24.041a7.1,7.1,0,0,0,4.989,1.923c1.966.112,7.858.112,9.824,0A7.046,7.046,0,0,0,21.8,24.041a7.093,7.093,0,0,0,1.923-4.989c.112-1.966.112-7.853,0-9.818Zm-2.54,11.928a4.018,4.018,0,0,1-2.263,2.263c-1.567.622-5.286.478-7.018.478s-5.456.138-7.018-.478a4.018,4.018,0,0,1-2.263-2.263c-.622-1.567-.478-5.286-.478-7.018s-.138-5.456.478-7.018A4.018,4.018,0,0,1,4.887,4.861c1.567-.622,5.286-.478,7.018-.478s5.456-.138,7.018.478a4.018,4.018,0,0,1,2.263,2.263c.622,1.567.478,5.286.478,7.018S21.808,19.6,21.187,21.161Z" transform="translate(0.005 -2.238)" fill="#57dcc2"/>
</svg>
