<svg id="Group_13129" data-name="Group 13129" xmlns="http://www.w3.org/2000/svg" width="21.072" height="21.072" viewBox="0 0 21.072 21.072">
  <path id="Path_44062" data-name="Path 44062" d="M10.536,0A10.536,10.536,0,1,0,21.072,10.536,10.536,10.536,0,0,0,10.536,0Z" fill="#57dcc2"/>
  <g id="Icon_ionic-logo-instagram" data-name="Icon ionic-logo-instagram" transform="translate(3.976 3.976)">
    <path id="Path_44309" data-name="Path 44309" d="M13.686,5.581a2.71,2.71,0,0,1,2.7,2.7v5.4a2.71,2.71,0,0,1-2.7,2.7h-5.4a2.71,2.71,0,0,1-2.7-2.7v-5.4a2.71,2.71,0,0,1,2.7-2.7h5.4m0-1.081h-5.4A3.793,3.793,0,0,0,4.5,8.282v5.4a3.793,3.793,0,0,0,3.782,3.782h5.4a3.793,3.793,0,0,0,3.782-3.782v-5.4A3.793,3.793,0,0,0,13.686,4.5Z" transform="translate(-4.5 -4.5)" fill="#634ddc"/>
    <path id="Path_44310" data-name="Path 44310" d="M24.435,10.621a.81.81,0,1,1,.81-.81A.809.809,0,0,1,24.435,10.621Z" transform="translate(-14.439 -6.839)" fill="#634ddc"/>
    <path id="Path_44311" data-name="Path 44311" d="M14.492,12.331a2.161,2.161,0,1,1-2.161,2.161,2.163,2.163,0,0,1,2.161-2.161m0-1.081a3.242,3.242,0,1,0,3.242,3.242,3.243,3.243,0,0,0-3.242-3.242Z" transform="translate(-8.008 -8.008)" fill="#634ddc"/>
  </g>
</svg>
