<svg xmlns="http://www.w3.org/2000/svg" width="10.544" height="8.955" viewBox="0 0 10.544 8.955">
  <g id="Icon_ionic-ios-log-out" data-name="Icon ionic-ios-log-out" transform="translate(-3.275 -5.525)">
    <path id="Path_47795" data-name="Path 47795" d="M9.941,12.888a.349.349,0,0,0-.348.348.449.449,0,0,1-.448.448H4.519a.449.449,0,0,1-.448-.448V6.769a.449.449,0,0,1,.448-.448H9.145a.449.449,0,0,1,.448.448.348.348,0,1,0,.7,0A1.144,1.144,0,0,0,9.145,5.625H4.519A1.144,1.144,0,0,0,3.375,6.769v6.467A1.144,1.144,0,0,0,4.519,14.38H9.145a1.144,1.144,0,0,0,1.144-1.144A.349.349,0,0,0,9.941,12.888Z" fill="#fff" stroke="#fff" stroke-width="0.2"/>
    <path id="Path_47796" data-name="Path 47796" d="M16,10.93a.346.346,0,0,0-.246-.1.34.34,0,0,0-.246.1.347.347,0,0,0,0,.492l1.622,1.6H10.754a.348.348,0,1,0,0,.7h6.382L15.555,15.31a.351.351,0,0,0,0,.492l0,0a.36.36,0,0,0,.244.1.336.336,0,0,0,.246-.1L18.1,13.751a.489.489,0,0,0,0-.726Z" transform="translate(-4.544 -3.363)" fill="#fff" stroke="#fff" stroke-width="0.2"/>
  </g>
</svg>
