<svg id="Layer_2-2" data-name="Layer 2-2" xmlns="http://www.w3.org/2000/svg" width="10.902" height="13" viewBox="0 0 10.902 13">
  <path id="Path_47412" data-name="Path 47412" d="M278.269,10.051A8.62,8.62,0,0,0,276.234,7.2a3.443,3.443,0,0,0,.41-1.625,3.576,3.576,0,0,0-7.151,0A3.452,3.452,0,0,0,269.9,7.2a8.64,8.64,0,0,0-2.035,2.848,2.6,2.6,0,0,0,.442,2.887,6.5,6.5,0,0,0,9.189.316c.109-.1.215-.207.316-.316A2.6,2.6,0,0,0,278.269,10.051Zm-5.2-7.073a2.6,2.6,0,0,1,2.6,2.6,2.457,2.457,0,0,1-.228,1.047,2.474,2.474,0,0,1-.553.806,2.6,2.6,0,0,1-3.641,0,2.483,2.483,0,0,1-.553-.806,2.477,2.477,0,0,1-.228-1.047A2.6,2.6,0,0,1,273.068,2.977Zm4.037,9.3a5.519,5.519,0,0,1-7.8.274q-.141-.133-.274-.274a1.639,1.639,0,0,1-.273-1.82,7.857,7.857,0,0,1,1.71-2.425,3.57,3.57,0,0,0,5.046.156c.053-.051.105-.1.155-.156a7.843,7.843,0,0,1,1.71,2.425A1.638,1.638,0,0,1,277.105,12.274Z" transform="translate(-267.615 -2.002)" fill="#fff"/>
</svg>
