<svg xmlns="http://www.w3.org/2000/svg" width="14.261" height="16.854" viewBox="0 0 14.261 16.854">
  <path id="Icon_ionic-md-notifications-outline" data-name="Icon ionic-md-notifications-outline" d="M12.8,6.311a5.857,5.857,0,0,1,.969.181,4.129,4.129,0,0,1,3.147,4.045v5.17l.378.379.316.317h-9.7l.316-.317.378-.379v-5.17a4.129,4.129,0,0,1,3.147-4.045,7.172,7.172,0,0,1,.969-.181m.041-2.936A1.239,1.239,0,0,0,11.5,4.639v.59A5.462,5.462,0,0,0,7.3,10.538v4.635L5.625,16.858V17.7H19.886v-.843l-1.678-1.685V10.538a5.462,5.462,0,0,0-4.194-5.309v-.59a1.239,1.239,0,0,0-1.258-1.264Zm1.678,15.169H11.078a1.678,1.678,0,1,0,3.356,0Z" transform="translate(-5.625 -3.375)" fill="#634ddc"/>
</svg>
