<svg id="User" xmlns="http://www.w3.org/2000/svg" width="24" height="24" viewBox="0 0 24 24">
  <path id="Path_45732" data-name="Path 45732" d="M0,0H24V24H0Z" fill="none"/>
  <g id="lighting_installed" transform="translate(1.976 2.014)">
    <path id="Path_52186" data-name="Path 52186" d="M3.857,9.721h13.16v10.2A1.316,1.316,0,0,1,15.7,21.236H5.173A1.316,1.316,0,0,1,3.857,19.92Z" transform="translate(-0.414 -2.121)" fill="none" stroke="#6353d9" stroke-width="1.5"/>
    <path id="Path_52187" data-name="Path 52187" d="M2.786,7.6H17.261a.658.658,0,0,0,.395-1.184L10.418.988a.658.658,0,0,0-.79,0L2.391,6.416A.658.658,0,0,0,2.786,7.6Z" transform="translate(0 0)" fill="none" stroke="#6353d9" stroke-width="1.5"/>
  </g>
</svg>
