<svg xmlns="http://www.w3.org/2000/svg" width="33.51" height="36.022" viewBox="0 0 33.51 36.022">
  <g id="love_1_" data-name="love (1)" transform="translate(-17.852)">
    <g id="Group_448" data-name="Group 448" transform="translate(29.514 0)">
      <path id="Path_1400" data-name="Path 1400" d="M194.361,18.378a1.062,1.062,0,0,1-.753-.311l-8.325-8.325a5.706,5.706,0,0,1,8.07-8.07l1.009,1.009,1.009-1.009a5.706,5.706,0,1,1,8.07,8.07l-5.1,5.1a.528.528,0,1,1-.746-.746l5.1-5.1a4.651,4.651,0,0,0-6.577-6.577L194.734,3.8a.528.528,0,0,1-.746,0l-1.382-1.382a4.651,4.651,0,0,0-6.577,6.577l8.325,8.325a.01.01,0,0,0,.014,0l1.288-1.288a.528.528,0,0,1,.746.746l-1.288,1.288a1.061,1.061,0,0,1-.753.312Z" transform="translate(-183.611 0)" fill="#57dcc2"/>
    </g>
    <g id="Group_449" data-name="Group 449" transform="translate(17.852 27.046)">
      <path id="Path_1401" data-name="Path 1401" d="M29.937,393.4H18.953a1.1,1.1,0,0,1-1.044-1.452l2.405-7.164a.528.528,0,0,1,1,.336l-2.405,7.164a.046.046,0,0,0,.044.061H29.937a.046.046,0,0,0,.046-.046v-1.2a1.664,1.664,0,0,1,.936-1.5l9.48-4.661a.528.528,0,0,1,.466.947l-9.48,4.661a.624.624,0,0,0-.346.556v1.2a1.1,1.1,0,0,1-1.1,1.1Z" transform="translate(-17.852 -384.423)" fill="#57dcc2"/>
    </g>
    <g id="Group_450" data-name="Group 450" transform="translate(21.019 13.556)">
      <path id="Path_1402" data-name="Path 1402" d="M84.536,206.665a.528.528,0,0,1-.233-1l4.089-2.011a1.92,1.92,0,0,0,.951-1.044l2.719-7.152A1.275,1.275,0,0,0,89.75,194.4l-2.93,5.394a.528.528,0,0,1-.281.243l-10.613,3.922a2.155,2.155,0,0,1-1.541-4.025l2.332-.924a1.454,1.454,0,0,0-1.034-2.717L67.43,199.3a4.364,4.364,0,0,0-2.653,2.724l-.891,2.654a.528.528,0,0,1-1-.336l.891-2.654a5.415,5.415,0,0,1,3.292-3.379l8.253-3.014a2.509,2.509,0,0,1,1.785,4.69l-2.332.924a1.1,1.1,0,0,0-.386,1.787,1.1,1.1,0,0,0,1.172.267l10.427-3.853,2.836-5.22a2.33,2.33,0,0,1,4.225,1.94l-2.719,7.152a2.972,2.972,0,0,1-1.471,1.616l-4.089,2.011A.526.526,0,0,1,84.536,206.665Z" transform="translate(-62.858 -192.674)" fill="#57dcc2"/>
    </g>
  </g>
</svg>
