<svg xmlns="http://www.w3.org/2000/svg" width="28.871" height="36.325" viewBox="0 0 28.871 36.325">
  <g id="antivirus" transform="translate(-52.528)">
    <g id="Group_18174" data-name="Group 18174" transform="translate(52.528 0)">
      <path id="Path_47791" data-name="Path 47791" d="M80.867,12.65a.532.532,0,0,0,.532-.532V6.977a1.968,1.968,0,0,0-1.865-1.97c-6.311-.321-9.7-2.9-11.162-4.412a1.961,1.961,0,0,0-2.816,0C64.1,2.106,60.7,4.686,54.393,5.008a1.968,1.968,0,0,0-1.865,1.97V21.813a12.032,12.032,0,0,0,6,10.391l6.02,3.475a4.843,4.843,0,0,0,4.832,0L75.4,32.2a12.032,12.032,0,0,0,6-10.391V14.6a.532.532,0,1,0-1.064,0v7.212a10.965,10.965,0,0,1-5.467,9.469l-6.02,3.475a3.776,3.776,0,0,1-3.767,0l-6.02-3.475a10.965,10.965,0,0,1-5.467-9.469V6.977a.9.9,0,0,1,.855-.907c6.675-.34,10.3-3.112,11.874-4.735a.9.9,0,0,1,1.285,0c1.569,1.622,5.2,4.395,11.873,4.735a.9.9,0,0,1,.855.907v5.14A.532.532,0,0,0,80.867,12.65Z" transform="translate(-52.528 0)" fill="#57dcc2"/>
      <path id="Path_47792" data-name="Path 47792" d="M93.47,61.246a.532.532,0,0,0-.532.532V68.99A9.159,9.159,0,0,0,97.5,76.9l6.02,3.475a1.964,1.964,0,0,0,1.965,0l6.02-3.475a9.159,9.159,0,0,0,4.566-7.908V56.115a1.248,1.248,0,0,0-1.09-1.238,19.35,19.35,0,0,1-9.706-3.829,1.245,1.245,0,0,0-1.544,0,19.349,19.349,0,0,1-9.705,3.829,1.249,1.249,0,0,0-1.09,1.238v3.179a.532.532,0,1,0,1.064,0V56.115a.183.183,0,0,1,.159-.182,20.41,20.41,0,0,0,10.232-4.049.183.183,0,0,1,.227,0,20.41,20.41,0,0,0,10.233,4.049.183.183,0,0,1,.158.182V68.99a8.091,8.091,0,0,1-4.033,6.987l-6.02,3.475a.914.914,0,0,1-.9,0l-6.02-3.475A8.091,8.091,0,0,1,94,68.99V61.778A.532.532,0,0,0,93.47,61.246Z" transform="translate(-90.071 -47.177)" fill="#57dcc2"/>
      <path id="Path_47793" data-name="Path 47793" d="M129.951,168.146a1.607,1.607,0,0,1,1.144.474l2.781,2.78a.532.532,0,0,0,.752,0l3.046-3.046a.532.532,0,0,0-.752-.753l-2.67,2.67-2.4-2.4a2.682,2.682,0,1,0-3.793,3.793l4.3,4.3a2.681,2.681,0,0,0,3.793,0l8.6-8.6a2.682,2.682,0,0,0-3.792-3.794l-2.278,2.278a.532.532,0,0,0,.752.753l2.278-2.278A1.618,1.618,0,1,1,144,166.608l-8.6,8.6a1.617,1.617,0,0,1-2.287,0l-4.3-4.3a1.618,1.618,0,0,1,1.144-2.762Z" transform="translate(-121.966 -151.233)" fill="#57dcc2"/>
    </g>
  </g>
</svg>
