<svg xmlns="http://www.w3.org/2000/svg" width="18.291" height="18.291" viewBox="0 0 18.291 18.291">
  <g id="streamline-icon-cog-2_140x140" data-name="streamline-icon-cog-2@140x140" transform="translate(-8.1 -8.106)">
    <path id="Path_46378" data-name="Path 46378" d="M26.25,32.324a6.068,6.068,0,1,0,6.068-6.068,6.068,6.068,0,0,0-6.068,6.068Z" transform="translate(-15.073 -15.073)" fill="none" stroke="#6353d9" stroke-linecap="round" stroke-linejoin="round" stroke-width="1.3"/>
    <path id="Path_46379" data-name="Path 46379" d="M8.75,70.006h2.427" transform="translate(0 -52.754)" fill="none" stroke="#6353d9" stroke-linecap="round" stroke-linejoin="round" stroke-width="1.3"/>
    <path id="Path_46380" data-name="Path 46380" d="M113.75,70.006h2.427" transform="translate(-90.436 -52.754)" fill="none" stroke="#6353d9" stroke-linecap="round" stroke-linejoin="round" stroke-width="1.3"/>
    <path id="Path_46381" data-name="Path 46381" d="M70,8.756v2.427" transform="translate(-52.754)" fill="none" stroke="#6353d9" stroke-linecap="round" stroke-linejoin="round" stroke-width="1.3"/>
    <path id="Path_46382" data-name="Path 46382" d="M70,113.756v2.427" transform="translate(-52.754 -90.436)" fill="none" stroke="#6353d9" stroke-linecap="round" stroke-linejoin="round" stroke-width="1.3"/>
    <path id="Path_46383" data-name="Path 46383" d="M26.687,26.693l1.718,1.717" transform="translate(-15.449 -15.449)" fill="none" stroke="#6353d9" stroke-linecap="round" stroke-linejoin="round" stroke-width="1.3"/>
    <path id="Path_46384" data-name="Path 46384" d="M100.934,100.934l1.717,1.718" transform="translate(-79.398 -79.393)" fill="none" stroke="#6353d9" stroke-linecap="round" stroke-linejoin="round" stroke-width="1.3"/>
    <path id="Path_46385" data-name="Path 46385" d="M102.651,26.693l-1.717,1.717" transform="translate(-79.398 -15.449)" fill="none" stroke="#6353d9" stroke-linecap="round" stroke-linejoin="round" stroke-width="1.3"/>
    <path id="Path_46386" data-name="Path 46386" d="M28.405,100.934l-1.718,1.718" transform="translate(-15.449 -79.393)" fill="none" stroke="#6353d9" stroke-linecap="round" stroke-linejoin="round" stroke-width="1.3"/>
    <path id="Path_46387" data-name="Path 46387" d="M56.875,58.7a1.82,1.82,0,1,0,1.82-1.82A1.82,1.82,0,0,0,56.875,58.7Z" transform="translate(-41.45 -41.45)" fill="none" stroke="#6353d9" stroke-linecap="round" stroke-linejoin="round" stroke-width="1.3"/>
  </g>
</svg>
