<svg xmlns="http://www.w3.org/2000/svg" width="21.33" height="21.33" viewBox="0 0 21.33 21.33">
  <path id="Path_44063" data-name="Path 44063" d="M10.665,0A10.665,10.665,0,1,0,21.329,10.665,10.665,10.665,0,0,0,10.665,0Zm4.87,8.315q.007.158.007.316A6.917,6.917,0,0,1,8.576,15.6h0a6.928,6.928,0,0,1-3.752-1.1,4.979,4.979,0,0,0,.584.034,4.911,4.911,0,0,0,3.04-1.048,2.452,2.452,0,0,1-2.286-1.7,2.44,2.44,0,0,0,1.105-.042A2.452,2.452,0,0,1,5.3,9.343c0-.011,0-.021,0-.031a2.431,2.431,0,0,0,1.109.306,2.452,2.452,0,0,1-.755-3.27A6.95,6.95,0,0,0,10.7,8.906a2.452,2.452,0,0,1,4.175-2.232,4.909,4.909,0,0,0,1.555-.6,2.458,2.458,0,0,1-1.077,1.354,4.882,4.882,0,0,0,1.405-.386,4.974,4.974,0,0,1-1.225,1.27Zm0,0" transform="translate(0.001)" fill="#57dcc2"/>
</svg>
